<svg width="200" height="200" viewBox="0 0 200 200" fill="none" xmlns="http://www.w3.org/2000/svg">
<g clip-path="url(#clip0_1_2)">
<path d="M200 100C200 155.228 155.228 200 100 200C44.7717 200 0 155.228 0 100C0 44.7717 44.7717 0 100 0C155.228 0 200 44.7717 200 100Z" fill="#0F316B"/>
<path d="M171.152 110.323H165.701C162.165 110.323 159.104 112.671 158.153 116.028C151.068 141.034 127.809 159.355 100.166 159.355C66.893 159.355 39.9604 132.808 39.9604 100C39.9604 67.1973 66.8877 40.6453 100.166 40.6453C127.805 40.6453 151.068 58.9633 158.153 83.9717C159.104 87.3287 162.166 89.6777 165.702 89.6777H171.149C176.289 89.6777 180.034 84.8923 178.751 79.9853C169.703 45.356 137.727 19.8047 99.7304 20.0011C54.8864 20.2334 18.925 55.9613 19.0196 100.172C19.1138 144.276 55.4084 180 100.166 180C138.002 180 169.789 154.471 178.773 119.932C180.041 115.057 176.256 110.323 171.152 110.323Z" fill="white"/>
<path d="M119.133 97.04C123.853 97.92 127.733 100.28 130.773 104.12C133.813 107.96 135.333 112.36 135.333 117.32C135.333 121.8 134.213 125.76 131.973 129.2C129.813 132.56 126.653 135.2 122.493 137.12C118.333 139.04 113.413 140 107.733 140H71.6134V56.24H106.173C111.853 56.24 116.733 57.16 120.813 59C124.973 60.84 128.093 63.4 130.173 66.68C132.333 69.96 133.413 73.68 133.413 77.84C133.413 82.72 132.093 86.8 129.453 90.08C126.893 93.36 123.453 95.68 119.133 97.04ZM88.4134 90.8H103.773C107.773 90.8 110.853 89.92 113.013 88.16C115.173 86.32 116.253 83.72 116.253 80.36C116.253 77 115.173 74.4 113.013 72.56C110.853 70.72 107.773 69.8 103.773 69.8H88.4134V90.8ZM105.333 126.32C109.413 126.32 112.573 125.36 114.813 123.44C117.133 121.52 118.293 118.8 118.293 115.28C118.293 111.68 117.093 108.88 114.693 106.88C112.293 104.8 109.053 103.76 104.973 103.76H88.4134V126.32H105.333Z" fill="white"/>
</g>
<defs>
<clipPath id="clip0_1_2">
<rect width="200" height="200" fill="white"/>
</clipPath>
</defs>
</svg>
